<svg width="159" height="60" viewBox="0 0 159 60" fill="none" xmlns="http://www.w3.org/2000/svg">
<path d="M11.7979 20.944C12.4699 20.944 13.3179 21.008 14.3419 21.136C15.3659 21.232 16.3419 21.44 17.2699 21.76C18.1979 22.048 18.9979 22.464 19.6699 23.008C20.3419 23.552 20.6779 24.24 20.6779 25.072C20.6779 25.552 20.5339 25.968 20.2459 26.32C19.9899 26.672 19.5739 26.848 18.9979 26.848C18.5819 26.848 18.1019 26.784 17.5579 26.656C17.0459 26.528 16.4699 26.384 15.8299 26.224C15.2219 26.032 14.5499 25.872 13.8139 25.744C13.1099 25.616 12.3579 25.552 11.5579 25.552C10.2139 25.552 9.10988 25.76 8.24588 26.176C7.41388 26.592 6.99788 27.248 6.99788 28.144C6.99788 28.656 7.14188 29.088 7.42988 29.44C7.74988 29.792 8.16588 30.112 8.67788 30.4C9.22188 30.656 9.84588 30.88 10.5499 31.072C11.2859 31.264 12.0539 31.456 12.8539 31.648C13.8459 31.904 14.8219 32.192 15.7819 32.512C16.7739 32.832 17.6539 33.28 18.4219 33.856C19.1899 34.4 19.8139 35.104 20.2939 35.968C20.7739 36.8 21.0139 37.84 21.0139 39.088C21.0139 41.456 20.1179 43.344 18.3259 44.752C16.5339 46.128 13.8939 46.816 10.4059 46.816C9.63788 46.816 8.72588 46.752 7.66988 46.624C6.61388 46.528 5.62188 46.32 4.69388 46C3.76588 45.712 2.96588 45.296 2.29388 44.752C1.65388 44.176 1.33388 43.424 1.33388 42.496C1.33388 41.856 1.47788 41.376 1.76588 41.056C2.08588 40.704 2.46988 40.528 2.91788 40.528C3.26988 40.528 3.63788 40.64 4.02188 40.864C4.40588 41.088 4.86988 41.328 5.41388 41.584C5.95788 41.84 6.61388 42.08 7.38188 42.304C8.14988 42.528 9.09388 42.64 10.2139 42.64C10.6299 42.64 11.1739 42.624 11.8459 42.592C12.5179 42.528 13.1739 42.384 13.8139 42.16C14.4859 41.936 15.0459 41.632 15.4939 41.248C15.9739 40.832 16.2139 40.256 16.2139 39.52C16.2139 38.944 16.0539 38.464 15.7339 38.08C15.4139 37.664 14.9819 37.312 14.4379 37.024C13.8939 36.736 13.2539 36.496 12.5179 36.304C11.8139 36.08 11.0619 35.856 10.2619 35.632C9.33388 35.376 8.38988 35.088 7.42988 34.768C6.50188 34.448 5.65388 34.032 4.88588 33.52C4.11788 33.008 3.49388 32.368 3.01388 31.6C2.53388 30.8 2.29388 29.824 2.29388 28.672C2.29388 27.584 2.51788 26.576 2.96588 25.648C3.41388 24.688 4.05388 23.856 4.88588 23.152C5.71788 22.448 6.70988 21.904 7.86188 21.52C9.04588 21.136 10.3579 20.944 11.7979 20.944ZM36.516 21.664C38.34 21.664 39.972 21.952 41.412 22.528C42.852 23.072 44.068 23.856 45.06 24.88C46.084 25.904 46.868 27.152 47.412 28.624C47.956 30.096 48.228 31.744 48.228 33.568C48.228 35.584 47.908 37.392 47.268 38.992C46.66 40.592 45.796 41.952 44.676 43.072C43.588 44.192 42.276 45.056 40.74 45.664C39.236 46.272 37.588 46.576 35.796 46.576C33.844 46.576 32.116 46.24 30.612 45.568C29.14 44.896 27.892 43.984 26.868 42.832C25.876 41.68 25.124 40.352 24.612 38.848C24.1 37.344 23.844 35.76 23.844 34.096C23.844 32.272 24.132 30.608 24.708 29.104C25.316 27.568 26.164 26.256 27.252 25.168C28.372 24.048 29.716 23.184 31.284 22.576C32.852 21.968 34.596 21.664 36.516 21.664ZM35.988 42.16C37.3 42.16 38.42 41.936 39.348 41.488C40.276 41.008 41.028 40.384 41.604 39.616C42.212 38.848 42.644 37.984 42.9 37.024C43.188 36.032 43.332 35.008 43.332 33.952C43.332 32.864 43.188 31.856 42.9 30.928C42.644 29.968 42.228 29.136 41.652 28.432C41.108 27.728 40.388 27.184 39.492 26.8C38.628 26.384 37.588 26.176 36.372 26.176C35.124 26.176 34.036 26.384 33.108 26.8C32.18 27.216 31.396 27.792 30.756 28.528C30.148 29.232 29.684 30.08 29.364 31.072C29.044 32.064 28.884 33.136 28.884 34.288C28.884 36.624 29.476 38.528 30.66 40C31.876 41.44 33.652 42.16 35.988 42.16ZM63.9345 21.52C64.8625 21.52 65.7905 21.6 66.7185 21.76C67.6785 21.92 68.5425 22.144 69.3105 22.432C70.0785 22.72 70.7025 23.072 71.1825 23.488C71.6625 23.904 71.9025 24.384 71.9025 24.928C71.9025 26.336 71.1025 27.04 69.5025 27.04C69.1185 27.04 68.7505 26.992 68.3985 26.896C68.0785 26.768 67.6945 26.656 67.2465 26.56C66.7985 26.432 66.2385 26.32 65.5665 26.224C64.8945 26.096 64.0625 26.032 63.0705 26.032C60.9585 26.032 59.3265 26.752 58.1745 28.192C57.0225 29.632 56.4465 31.504 56.4465 33.808C56.4465 36.336 57.0225 38.368 58.1745 39.904C59.3585 41.44 61.0225 42.208 63.1665 42.208C64.5105 42.208 65.5985 42.096 66.4305 41.872C67.2625 41.648 67.9345 41.392 68.4465 41.104C68.9905 40.816 69.4225 40.56 69.7425 40.336C70.0945 40.112 70.4785 40 70.8945 40C71.4705 40 71.9185 40.128 72.2385 40.384C72.5905 40.608 72.7665 41.088 72.7665 41.824C72.7665 42.592 72.4625 43.264 71.8545 43.84C71.2785 44.416 70.5425 44.896 69.6465 45.28C68.7505 45.664 67.7745 45.952 66.7185 46.144C65.6945 46.336 64.7505 46.432 63.8865 46.432C60.0145 46.432 56.9745 45.36 54.7665 43.216C52.5585 41.072 51.4545 38.032 51.4545 34.096C51.4545 32.4 51.7105 30.8 52.2225 29.296C52.7665 27.76 53.5665 26.416 54.6225 25.264C55.6785 24.112 56.9745 23.2 58.5105 22.528C60.0785 21.856 61.8865 21.52 63.9345 21.52ZM77.1859 43.024C77.1219 41.84 77.0579 40.496 76.9939 38.992C76.9619 37.456 76.9459 35.776 76.9459 33.952C76.9459 31.68 76.9619 29.744 76.9939 28.144C77.0259 26.512 77.1059 25.184 77.2339 24.16C77.3939 23.104 77.6339 22.336 77.9539 21.856C78.2739 21.344 78.7219 21.088 79.2979 21.088C79.8419 21.088 80.3219 21.28 80.7379 21.664C81.1539 22.048 81.3939 22.88 81.4579 24.16C81.6499 27.52 81.7459 30.768 81.7459 33.904C81.7459 35.504 81.7139 37.008 81.6499 38.416C81.5859 39.792 81.5219 41.312 81.4579 42.976C81.4259 43.744 81.3459 44.336 81.2179 44.752C81.1219 45.168 80.9779 45.488 80.7859 45.712C80.5939 45.936 80.3699 46.064 80.1139 46.096C79.8899 46.16 79.6179 46.192 79.2979 46.192C78.7219 46.192 78.2419 46 77.8579 45.616C77.4739 45.2 77.2499 44.336 77.1859 43.024ZM79.3459 12.4C80.0819 12.4 80.7539 12.688 81.3619 13.264C82.0019 13.84 82.3219 14.528 82.3219 15.328C82.3219 16.096 82.0019 16.768 81.3619 17.344C80.7219 17.888 80.0019 18.16 79.2019 18.16C78.5299 18.16 77.8899 17.888 77.2819 17.344C76.7059 16.768 76.4179 16.064 76.4179 15.232C76.4179 14.464 76.7059 13.808 77.2819 13.264C77.8899 12.688 78.5779 12.4 79.3459 12.4ZM107.358 46.192C106.846 46.192 106.43 46.112 106.11 45.952C105.822 45.76 105.598 45.52 105.438 45.232C105.278 44.944 105.166 44.608 105.102 44.224C105.038 43.808 104.99 43.376 104.958 42.928C104.158 43.92 103.118 44.752 101.838 45.424C100.59 46.096 98.99 46.432 97.038 46.432C95.79 46.432 94.51 46.256 93.198 45.904C91.918 45.52 90.75 44.88 89.694 43.984C88.638 43.056 87.774 41.824 87.102 40.288C86.43 38.752 86.094 36.816 86.094 34.48C86.094 32.656 86.318 30.944 86.766 29.344C87.214 27.744 87.886 26.352 88.782 25.168C89.71 23.952 90.862 22.992 92.238 22.288C93.614 21.584 95.23 21.232 97.086 21.232C98.718 21.232 100.174 21.536 101.454 22.144C102.734 22.72 103.886 23.68 104.91 25.024C104.91 24.64 104.926 24.256 104.958 23.872C104.99 23.456 105.07 23.088 105.198 22.768C105.358 22.416 105.598 22.144 105.918 21.952C106.238 21.728 106.67 21.616 107.214 21.616C107.694 21.616 108.142 21.808 108.558 22.192C108.974 22.576 109.214 23.408 109.278 24.688C109.374 26.384 109.438 27.904 109.47 29.248C109.534 30.592 109.566 31.984 109.566 33.424C109.566 35.184 109.55 36.8 109.518 38.272C109.486 39.744 109.406 41.312 109.278 42.976C109.214 43.712 109.118 44.304 108.99 44.752C108.894 45.168 108.766 45.488 108.606 45.712C108.446 45.904 108.254 46.032 108.03 46.096C107.806 46.16 107.582 46.192 107.358 46.192ZM104.766 34C104.766 32.336 104.51 30.976 103.998 29.92C103.518 28.864 102.894 28.048 102.126 27.472C101.39 26.864 100.59 26.448 99.726 26.224C98.862 26 98.062 25.888 97.326 25.888C96.174 25.888 95.182 26.096 94.35 26.512C93.55 26.928 92.894 27.504 92.382 28.24C91.87 28.944 91.486 29.792 91.23 30.784C91.006 31.744 90.894 32.8 90.894 33.952C90.894 36.768 91.502 38.848 92.718 40.192C93.966 41.536 95.646 42.208 97.758 42.208C99.006 42.208 100.062 42 100.926 41.584C101.822 41.136 102.542 40.544 103.086 39.808C103.662 39.072 104.078 38.208 104.334 37.216C104.622 36.192 104.766 35.12 104.766 34ZM115.482 43.216C115.45 42.064 115.418 40.72 115.386 39.184C115.354 37.648 115.322 35.984 115.29 34.192C115.29 32.4 115.274 30.512 115.242 28.528C115.242 26.544 115.242 24.512 115.242 22.432C115.242 20.16 115.258 18.208 115.29 16.576C115.322 14.944 115.402 13.6 115.53 12.544C115.69 11.488 115.93 10.72 116.25 10.24C116.57 9.728 117.018 9.472 117.594 9.472C118.138 9.472 118.618 9.648 119.034 10C119.45 10.352 119.69 11.168 119.754 12.448C119.882 14.752 119.962 17.152 119.994 19.648C120.026 22.112 120.042 24.544 120.042 26.944C120.042 28.384 120.042 29.776 120.042 31.12C120.042 32.432 120.026 33.744 119.994 35.056C119.962 36.336 119.93 37.648 119.898 38.992C119.866 40.336 119.818 41.728 119.754 43.168C119.722 43.936 119.642 44.528 119.514 44.944C119.418 45.36 119.274 45.68 119.082 45.904C118.89 46.128 118.666 46.256 118.41 46.288C118.186 46.352 117.914 46.384 117.594 46.384C117.018 46.384 116.538 46.192 116.154 45.808C115.77 45.392 115.546 44.528 115.482 43.216ZM126.216 43.216C126.184 42.064 126.152 40.72 126.12 39.184C126.088 37.648 126.056 35.984 126.024 34.192C126.024 32.4 126.008 30.512 125.976 28.528C125.976 26.544 125.976 24.512 125.976 22.432C125.976 20.16 125.992 18.208 126.024 16.576C126.056 14.944 126.136 13.6 126.264 12.544C126.424 11.488 126.664 10.72 126.984 10.24C127.304 9.728 127.752 9.472 128.328 9.472C128.872 9.472 129.352 9.648 129.768 10C130.184 10.352 130.424 11.168 130.488 12.448C130.616 14.752 130.696 17.152 130.728 19.648C130.76 22.112 130.776 24.544 130.776 26.944C130.776 28.384 130.776 29.776 130.776 31.12C130.776 32.432 130.76 33.744 130.728 35.056C130.696 36.336 130.664 37.648 130.632 38.992C130.6 40.336 130.552 41.728 130.488 43.168C130.456 43.936 130.376 44.528 130.248 44.944C130.152 45.36 130.008 45.68 129.816 45.904C129.624 46.128 129.4 46.256 129.144 46.288C128.92 46.352 128.648 46.384 128.328 46.384C127.752 46.384 127.272 46.192 126.888 45.808C126.504 45.392 126.28 44.528 126.216 43.216ZM142.278 54.784C141.862 55.52 141.462 56.064 141.078 56.416C140.726 56.768 140.31 56.944 139.83 56.944C139.382 56.944 138.934 56.8 138.486 56.512C138.038 56.224 137.814 55.824 137.814 55.312C137.814 54.832 137.974 54.144 138.294 53.248C138.646 52.352 139.062 51.376 139.542 50.32C140.054 49.264 140.582 48.176 141.126 47.056C141.67 45.936 142.166 44.912 142.614 43.984L142.95 43.264C141.99 41.376 140.998 39.36 139.974 37.216C138.982 35.072 138.07 33.04 137.238 31.12C136.406 29.2 135.718 27.536 135.174 26.128C134.662 24.688 134.406 23.744 134.406 23.296C134.406 22.88 134.566 22.528 134.886 22.24C135.238 21.92 135.67 21.76 136.182 21.76C136.63 21.76 137.062 21.856 137.478 22.048C137.894 22.208 138.278 22.592 138.63 23.2C139.142 24.16 139.67 25.264 140.214 26.512C140.79 27.728 141.35 29.008 141.894 30.352C142.47 31.696 143.046 33.056 143.622 34.432C144.23 35.808 144.838 37.136 145.446 38.416C146.15 37.104 146.902 35.728 147.702 34.288C148.502 32.848 149.27 31.456 150.006 30.112C150.774 28.768 151.478 27.536 152.118 26.416C152.758 25.264 153.302 24.304 153.75 23.536C154.198 22.8 154.646 22.272 155.094 21.952C155.542 21.632 156.006 21.472 156.486 21.472C156.806 21.472 157.126 21.616 157.446 21.904C157.766 22.16 157.926 22.512 157.926 22.96C157.926 23.632 157.622 24.72 157.014 26.224C156.438 27.696 155.686 29.408 154.758 31.36C153.83 33.312 152.774 35.408 151.59 37.648C150.438 39.856 149.286 42.032 148.134 44.176C146.982 46.288 145.878 48.272 144.822 50.128C143.798 51.984 142.95 53.536 142.278 54.784Z" fill="#1C6758"/>
</svg>
