<svg width="18" height="18" viewBox="0 0 18 18" fill="none" xmlns="http://www.w3.org/2000/svg">
<path d="M8.65396 17.3079C13.4334 17.3079 17.3079 13.4334 17.3079 8.65396C17.3079 3.87451 13.4334 0 8.65396 0C3.87451 0 0 3.87451 0 8.65396C0 13.4334 3.87451 17.3079 8.65396 17.3079Z" fill="#1C6758"/>
<path d="M5.40023 9.13835C6.62377 9.13835 7.61564 8.14647 7.61564 6.92293C7.61564 5.69939 6.62377 4.70752 5.40023 4.70752C4.17669 4.70752 3.18481 5.69939 3.18481 6.92293C3.18481 8.14647 4.17669 9.13835 5.40023 9.13835Z" fill="white"/>
<path d="M6.09424 11.354C6.11237 11.6903 6.25862 12.0068 6.50293 12.2386C6.74724 12.4704 7.07105 12.5998 7.40782 12.6002H11.0079C11.3446 12.5998 11.6684 12.4704 11.9127 12.2386C12.1571 12.0068 12.3033 11.6903 12.3214 11.354H6.09424Z" fill="white"/>
<path d="M4.56927 8.82702C5.21928 8.82702 5.74621 8.30009 5.74621 7.65008C5.74621 7.00008 5.21928 6.47314 4.56927 6.47314C3.91927 6.47314 3.39233 7.00008 3.39233 7.65008C3.39233 8.30009 3.91927 8.82702 4.56927 8.82702Z" fill="#3F3D56"/>
<path d="M4.98469 7.44253C5.13763 7.44253 5.26162 7.31854 5.26162 7.1656C5.26162 7.01266 5.13763 6.88867 4.98469 6.88867C4.83175 6.88867 4.70776 7.01266 4.70776 7.1656C4.70776 7.31854 4.83175 7.44253 4.98469 7.44253Z" fill="white"/>
<path d="M12.6001 9.17302C13.8236 9.17302 14.8155 8.18114 14.8155 6.9576C14.8155 5.73406 13.8236 4.74219 12.6001 4.74219C11.3765 4.74219 10.3846 5.73406 10.3846 6.9576C10.3846 8.18114 11.3765 9.17302 12.6001 9.17302Z" fill="white"/>
<path d="M11.7693 8.82702C12.4194 8.82702 12.9463 8.30009 12.9463 7.65008C12.9463 7.00008 12.4194 6.47314 11.7693 6.47314C11.1193 6.47314 10.5924 7.00008 10.5924 7.65008C10.5924 8.30009 11.1193 8.82702 11.7693 8.82702Z" fill="#3F3D56"/>
<path d="M12.1848 7.44253C12.3377 7.44253 12.4617 7.31854 12.4617 7.1656C12.4617 7.01266 12.3377 6.88867 12.1848 6.88867C12.0318 6.88867 11.9078 7.01266 11.9078 7.1656C11.9078 7.31854 12.0318 7.44253 12.1848 7.44253Z" fill="white"/>
<path d="M8.79245 10.246C9.25128 10.246 9.62323 9.87408 9.62323 9.41525C9.62323 8.95643 9.25128 8.58447 8.79245 8.58447C8.33362 8.58447 7.96167 8.95643 7.96167 9.41525C7.96167 9.87408 8.33362 10.246 8.79245 10.246Z" fill="#3F3D56"/>
<path d="M10.0385 16.8228H8.51538V17.9997H10.0385V16.8228Z" fill="#1C6758"/>
</svg>
