<svg width="24" height="21" viewBox="0 0 24 21" fill="none" xmlns="http://www.w3.org/2000/svg">
<path fill-rule="evenodd" clip-rule="evenodd" d="M11.8725 2.65511L11.2175 1.88951C8.58142 -0.746533 4.37761 -0.5669 1.74157 2.06914C-0.894471 4.70518 -0.387159 9.80151 2.24888 12.4375C3.31874 13.5074 4.92092 14.9887 7.05542 16.8815L8.85115 18.4612L10.8681 20.212C11.4234 20.6913 12.2439 20.6986 12.8077 20.2293L14.4416 18.8594C17.3029 16.4413 19.4262 14.5366 20.8115 13.1454L21.171 12.7788L21.4939 12.4375C23.9489 9.79014 24.5798 4.64387 22.005 2.06914L21.8185 1.88951C19.1711 -0.565474 15.179 -0.685229 12.6042 1.88951L11.8725 2.65511ZM3.30042 3.12596C5.38485 1.04153 8.60957 0.943806 10.6162 2.90798L12.3092 4.88664L14.1868 2.92204C16.1127 0.996709 19.182 1.02454 21.2968 2.98554L21.4627 3.14573C23.2821 4.96553 22.9726 9.17027 20.8922 11.4138L20.5797 11.7439L20.233 12.0974C19.0846 13.2499 17.3827 14.794 15.1387 16.7169L13.9716 17.7099L12.3463 19.0726L10.3326 17.3246L8.89139 16.0586C6.86058 14.2638 5.29394 12.8281 4.19704 11.7574L3.80774 11.373C1.6362 9.2015 1.36459 5.06179 3.30042 3.12596Z" fill="#262626"/>
</svg>
