<svg width="30" height="30" viewBox="0 0 30 30" fill="none" xmlns="http://www.w3.org/2000/svg">
<rect width="30" height="30" rx="15" fill="#005DEC"/>
<path d="M14.1923 8C13.8949 8 13.6538 8.24108 13.6538 8.53846V13.6538H8.53846C8.24108 13.6538 8 13.8949 8 14.1923V15.8077C8 16.1051 8.24108 16.3462 8.53846 16.3462H13.6538V21.4615C13.6538 21.7589 13.8949 22 14.1923 22H15.8077C16.1051 22 16.3462 21.7589 16.3462 21.4615V16.3462H21.4615C21.7589 16.3462 22 16.1051 22 15.8077V14.1923C22 13.8949 21.7589 13.6538 21.4615 13.6538H16.3462V8.53846C16.3462 8.24108 16.1051 8 15.8077 8H14.1923Z" fill="white"/>
</svg>
