<svg width="20" height="24" viewBox="0 0 20 24" fill="none" xmlns="http://www.w3.org/2000/svg">
<path d="M4.32328 6.31132C4.32328 9.29253 6.74793 11.7154 9.731 11.7154C12.7142 11.7154 15.1387 9.28514 15.1387 6.30412C15.1387 3.32291 12.7141 0.9 9.731 0.9C6.74784 0.9 4.32328 3.323 4.32328 6.31132ZM13.4858 6.30301L13.4863 6.30403L13.4858 6.30509C13.4728 6.3329 13.4533 6.37388 13.4277 6.42615C13.3766 6.5307 13.301 6.68035 13.2037 6.86004C13.0089 7.21967 12.7274 7.69853 12.3805 8.17679C12.0332 8.65561 11.6228 9.13039 11.1708 9.48463C10.7183 9.83923 10.2321 10.0669 9.731 10.0669C7.65875 10.0669 5.96559 8.37479 5.96559 6.30412C5.96559 4.23332 7.65166 2.54134 9.731 2.54134C10.234 2.54134 10.7211 2.76906 11.1739 3.12363C11.6262 3.47784 12.0364 3.95259 12.3832 4.43139C12.7296 4.90963 13.0104 5.38847 13.2046 5.74808C13.3017 5.92777 13.377 6.07741 13.428 6.18196C13.4535 6.23423 13.4728 6.2752 13.4858 6.30301Z" fill="#005DEC" stroke="#005DEC" stroke-width="0.2"/>
<path d="M14.7543 24.0001H4.70733C2.10776 24.0001 0 21.6235 0 18.6924C0 15.7612 2.11654 13.3846 4.70733 13.3846H14.7543C17.3539 13.3846 19.4616 15.7711 19.4616 18.6924C19.4616 21.6136 17.3539 24.0001 14.7543 24.0001ZM4.70733 15.3651C3.0826 15.3651 1.75646 16.8604 1.75646 18.6924C1.75646 20.5243 3.0826 22.0196 4.70733 22.0196H14.7543C16.379 22.0196 17.7052 20.5243 17.7052 18.6924C17.7052 16.8604 16.379 15.3651 14.7543 15.3651H4.70733Z" fill="#005DEC"/>
</svg>
