<svg width="46" height="46" viewBox="0 0 46 46" fill="none" xmlns="http://www.w3.org/2000/svg">
<path d="M18 20L18.1 33.2L30 26L18 20ZM40.6 0.200012H5.60001C2.85001 0.200012 0.600006 2.45001 0.600006 5.20001V40.2C0.600006 42.95 2.85001 45.2 5.60001 45.2H40.6C43.35 45.2 45.6 42.95 45.6 40.2V5.20001C45.6 2.45001 43.35 0.200012 40.6 0.200012ZM40.6 40.2H5.60001V5.20001H40.6V40.2Z" fill="#005DEC"/>
<path d="M5.60776 12.2H40.5669" stroke="#005DEC"/>
<path d="M13.5586 5.20454L15.8244 5.20454L18.1697 5.20454L20.5821 11.7255L15.8875 11.7255L13.5586 5.20454Z" fill="#005DEC"/>
<path d="M25.6214 5.20454L27.8873 5.20454L30.2326 5.20454L32.6449 11.7255L27.9503 11.7255L25.6214 5.20454Z" fill="#005DEC"/>
</svg>
